<?xml version="1.0" encoding="utf-8"?>
<!-- Generator: Adobe Illustrator 22.0.1, SVG Export Plug-In . SVG Version: 6.00 Build 0)  -->
<svg version="1.1" xmlns="http://www.w3.org/2000/svg" xmlns:xlink="http://www.w3.org/1999/xlink" x="0px" y="0px"
	 viewBox="0 0 1204.7 1204.7" style="enable-background:new 0 0 1204.7 1204.7;" xml:space="preserve">
<style type="text/css">
	.st0{display:none;}
	.st1{display:inline;fill:#F7981D;}
	.st2{display:inline;fill:#003D71;}
	.st3{display:none;fill:#DC606D;}
	.st4{fill:#DC606D;}
</style>
<g id="Layer_1" class="st0">
	<title>Artboard 1</title>
	<path class="st1" d="M542.3,393.5H525c-3,0.1-5.9-0.4-8.6-1.6c-2.1-1.1-3.7-3.3-4.7-6.7l-3.4-11.4c-3.8,3.4-7.8,6.7-12,9.6
		c-3.8,2.7-7.9,5.1-12.1,7c-4.3,1.9-8.7,3.3-13.3,4.2c-5.2,1-10.4,1.4-15.6,1.4c-6.4,0.1-12.7-0.9-18.8-2.7
		c-5.5-1.7-10.5-4.5-14.8-8.2c-4.2-3.8-7.5-8.4-9.6-13.7c-2.4-6-3.6-12.5-3.4-19c0-6.3,1.7-12.5,4.8-18c3.2-5.9,8.5-11.3,15.9-16
		c7.4-4.7,17.3-8.7,29.6-11.9c12.3-3.1,27.6-4.7,45.9-4.7v-9.5c0-10.8-2.3-18.8-6.8-24.1c-4.5-5.2-11.1-7.8-19.8-7.8
		c-5.3-0.1-10.6,0.6-15.6,2.2c-3.8,1.3-7.4,2.9-10.9,4.9c-3.1,1.8-5.9,3.5-8.5,4.9c-2.6,1.5-5.6,2.2-8.6,2.2c-2.4,0.1-4.8-0.6-6.7-2
		c-1.8-1.3-3.4-3-4.5-5l-7-12.4c18.5-16.9,40.7-25.3,66.8-25.3c8.6-0.2,17.1,1.4,25.1,4.5c7.1,2.9,13.5,7.3,18.7,12.8
		c5.2,5.7,9.2,12.3,11.7,19.6c2.7,8,4.1,16.5,4,25L542.3,393.5z M467.2,369.4c3.7,0,7.4-0.3,11-1.1c3.3-0.7,6.5-1.8,9.5-3.2
		c3-1.5,5.9-3.3,8.6-5.3c3-2.3,5.8-4.8,8.4-7.5v-26.9c-9.5-0.1-18.9,0.6-28.3,2.1c-6.3,1-12.4,2.9-18.2,5.4
		c-4.6,2.2-7.9,4.8-9.8,7.7c-1.9,2.8-2.9,6.2-2.9,9.6c0,6.8,2,11.7,6,14.7C455.5,368,460.7,369.4,467.2,369.4z"/>
	<path class="st1" d="M614.5,167.2h34c3.2-0.1,6.3,0.8,8.9,2.7c2.3,1.8,4.1,4.2,5.2,6.9l53.2,138c1.8,4.5,3.5,9.4,5.1,14.8
		c1.6,5.4,3.2,11,4.6,17c2.1-10.8,5.1-21.5,8.9-31.8l53.1-138c1.1-2.6,2.8-4.8,5-6.6c2.5-2,5.7-3.1,8.9-3h34L744,393.5h-38
		L614.5,167.2z"/>
	<path class="st1" d="M900.8,230.4c9.5-0.1,19,1.5,27.9,4.9c8.3,3.1,15.8,7.9,22,14.2c6.4,6.5,11.3,14.3,14.4,22.9
		c3.4,9,5.2,19.3,5.2,30.9c0,2.4-0.1,4.9-0.4,7.3c-0.2,1.6-0.6,3.1-1.4,4.5c-0.6,1.1-1.6,1.9-2.8,2.3c-1.4,0.5-2.9,0.7-4.4,0.7
		h-99.2c1.1,16.5,5.6,28.6,13.3,36.3c7.7,7.7,18,11.6,30.7,11.6c5.5,0.1,10.9-0.6,16.2-2.2c4.1-1.3,8.1-2.9,11.9-4.9
		c3.4-1.8,6.4-3.4,8.9-4.8c2.2-1.4,4.8-2.1,7.4-2.2c1.4,0,2.8,0.3,4.1,0.9c1.2,0.6,2.2,1.6,3,2.7l11.3,14.1
		c-4.1,4.9-9,9.1-14.4,12.6c-5.2,3.3-10.8,6.1-16.7,8.1c-5.7,2-11.7,3.5-17.7,4.3c-5.8,0.8-11.6,1.2-17.5,1.3
		c-10.6,0.1-21.2-1.8-31.1-5.6c-9.4-3.6-18-9.2-25-16.4c-7.4-7.7-13.1-16.9-16.7-26.9c-4.1-10.7-6.1-23.1-6.1-37.2
		c-0.1-10.5,1.7-21,5.3-30.9c3.4-9.3,8.5-17.9,15.3-25.2c6.8-7.3,15.1-13.1,24.3-17C878,232.5,888.8,230.4,900.8,230.4z
		 M901.5,258.1c-11.3,0-20.1,3.2-26.5,9.6c-6.4,6.4-10.4,15.4-12.2,27.1h72.6c0-4.8-0.6-9.6-2-14.2c-1.3-4.3-3.4-8.2-6.3-11.7
		c-2.9-3.4-6.5-6.1-10.7-7.9C911.8,259,906.7,258,901.5,258.1L901.5,258.1z"/>
	<path class="st1" d="M1065,230.4c9.5-0.1,19,1.5,27.9,4.9c8.3,3.1,15.8,7.9,22,14.2c6.4,6.5,11.3,14.3,14.4,22.9
		c3.4,9,5.2,19.3,5.2,30.9c0,2.4-0.1,4.9-0.4,7.3c-0.2,1.6-0.6,3.1-1.4,4.5c-0.6,1.1-1.6,1.9-2.7,2.3c-1.4,0.5-2.9,0.7-4.4,0.7
		h-99.2c1.1,16.5,5.6,28.6,13.3,36.3c7.7,7.7,18,11.6,30.7,11.6c5.5,0.1,10.9-0.6,16.2-2.2c4.1-1.3,8.1-2.9,11.9-4.9
		c3.4-1.8,6.4-3.4,8.9-4.8c2.2-1.4,4.8-2.1,7.4-2.2c1.4,0,2.8,0.3,4.1,0.9c1.2,0.6,2.2,1.6,3,2.7l11.3,14.1
		c-4.1,4.9-9,9.1-14.4,12.6c-5.2,3.3-10.8,6.1-16.7,8.1c-5.7,2-11.7,3.5-17.7,4.3c-5.8,0.8-11.6,1.2-17.5,1.3
		c-10.6,0.1-21.2-1.8-31.1-5.6c-9.4-3.6-18-9.2-25-16.4c-7.4-7.7-13.1-16.9-16.8-26.9c-4.1-10.7-6.1-23.1-6.1-37.2
		c-0.1-10.5,1.7-21,5.3-30.9c3.4-9.3,8.5-17.9,15.3-25.2c6.8-7.3,15.1-13.1,24.3-17C1042.2,232.5,1053,230.4,1065,230.4z
		 M1065.8,258.1c-11.3,0-20.1,3.2-26.4,9.6s-10.4,15.4-12.2,27.1h72.6c0-4.8-0.6-9.6-2-14.2c-1.3-4.3-3.4-8.2-6.3-11.7
		c-2.9-3.4-6.5-6.1-10.7-7.9C1076.1,259,1070.9,258,1065.8,258.1L1065.8,258.1z"/>
	<path class="st1" d="M1238.1,393.5H1203l-63.9-160.6h32.1c2.5-0.1,5,0.6,7.1,2c1.8,1.3,3.2,3.1,4,5.2l31,85.8
		c1.8,5,3.3,9.9,4.5,14.7c1.2,4.8,2.3,9.6,3.2,14.4c1-4.8,2-9.6,3.2-14.4c1.3-5,2.8-9.9,4.6-14.7l31.8-85.8c0.7-2.1,2.1-3.9,3.9-5.2
		c2-1.4,4.3-2.1,6.7-2h30.5L1238.1,393.5z"/>
	<path class="st1" d="M1447.3,393.5H1430c-3,0.1-5.9-0.4-8.6-1.6c-2.1-1.1-3.6-3.3-4.7-6.7l-3.4-11.4c-3.8,3.4-7.8,6.7-12,9.6
		c-3.8,2.7-7.9,5.1-12.1,7c-4.3,1.9-8.7,3.3-13.3,4.2c-5.2,1-10.4,1.4-15.7,1.4c-6.4,0.1-12.7-0.9-18.8-2.7
		c-5.5-1.7-10.5-4.5-14.8-8.2c-4.2-3.8-7.5-8.4-9.6-13.7c-2.4-6-3.6-12.5-3.4-19c0.1-6.3,1.7-12.5,4.8-18c3.2-5.9,8.5-11.3,15.9-16
		c7.4-4.7,17.3-8.7,29.6-11.9c12.3-3.1,27.6-4.7,45.9-4.7v-9.5c0-10.8-2.3-18.8-6.8-24.1s-11.1-7.8-19.8-7.8
		c-5.3-0.1-10.6,0.6-15.7,2.2c-3.8,1.3-7.4,2.9-10.9,4.9c-3.1,1.8-5.9,3.5-8.5,4.9c-2.6,1.5-5.6,2.2-8.6,2.2c-2.4,0.1-4.8-0.6-6.7-2
		c-1.9-1.3-3.4-3-4.5-5l-7-12.4c18.5-16.9,40.8-25.3,66.8-25.3c8.6-0.2,17.1,1.4,25.1,4.6c7.1,2.9,13.5,7.3,18.7,12.8
		c5.2,5.7,9.2,12.3,11.7,19.6c2.7,8,4.1,16.5,4,25L1447.3,393.5z M1372.2,369.4c3.7,0,7.4-0.3,11-1.1c3.3-0.7,6.5-1.8,9.5-3.2
		c3-1.5,5.9-3.3,8.6-5.3c3-2.3,5.8-4.8,8.4-7.5v-26.9c-9.5-0.1-18.9,0.6-28.3,2.1c-6.3,1-12.4,2.9-18.2,5.4
		c-4.6,2.2-7.9,4.8-9.8,7.7c-1.9,2.8-2.9,6.2-2.9,9.6c0,6.8,2,11.7,6,14.7C1360.5,368,1365.7,369.4,1372.2,369.4z"/>
	<path class="st1" d="M1652.4,266.9c-1,1.3-2.1,2.4-3.4,3.4c-1.4,0.9-3.1,1.4-4.8,1.3c-2.1,0-4.1-0.7-5.8-1.8
		c-1.9-1.2-4.1-2.6-6.7-4.1c-3-1.7-6.1-3-9.3-4.1c-4.3-1.3-8.9-1.9-13.4-1.8c-6.1-0.1-12.2,1.1-17.8,3.7c-5.1,2.4-9.4,6-12.8,10.6
		c-3.6,5-6.2,10.7-7.6,16.7c-1.8,7.2-2.6,14.7-2.5,22.1c-0.1,7.7,0.8,15.4,2.7,22.9c1.5,6.1,4.2,11.8,7.9,16.8
		c3.3,4.4,7.6,7.9,12.5,10.3c5.2,2.4,10.9,3.6,16.6,3.5c6.2,0,11.2-0.8,15-2.3c3.4-1.3,6.6-3,9.6-5c2.6-1.8,4.9-3.5,6.8-5
		c1.8-1.5,4.1-2.3,6.5-2.3c2.8-0.1,5.5,1.2,7,3.6l11.1,14.1c-4.1,4.8-8.7,9-13.9,12.6c-4.9,3.3-10.1,6-15.6,8.1
		c-5.4,2-11,3.5-16.7,4.3c-5.6,0.8-11.4,1.2-17.1,1.3c-9.6,0.1-19.1-1.8-28-5.6c-8.7-3.7-16.6-9.2-22.9-16.2
		c-6.8-7.6-12.1-16.4-15.5-26c-3.8-10.3-5.7-22-5.7-35.2c-0.1-11.1,1.6-22.2,5.1-32.8c3.1-9.6,8.2-18.5,14.9-26.1
		c6.8-7.5,15.1-13.4,24.4-17.3c9.7-4.2,20.9-6.2,33.5-6.3c12,0,22.5,1.9,31.5,5.8c9.1,3.9,17.4,9.5,24.3,16.6L1652.4,266.9z"/>
	<path class="st1" d="M1754.3,230.4c11.1-0.2,22.2,1.8,32.6,5.8c9.4,3.6,17.9,9.2,25,16.4c7.1,7.4,12.6,16.3,16,26
		c3.9,11,5.8,22.6,5.6,34.3c0,12.7-1.9,24.2-5.6,34.4c-3.5,9.7-8.9,18.6-16,26.1c-7,7.3-15.6,12.9-25,16.6
		c-21.1,7.7-44.3,7.7-65.3,0c-9.5-3.6-18-9.3-25.1-16.6c-7.1-7.5-12.6-16.4-16.1-26.1c-3.8-10.2-5.7-21.7-5.7-34.4
		c-0.2-11.7,1.8-23.3,5.7-34.3c3.5-9.7,9-18.6,16.1-26c7.1-7.2,15.7-12.8,25.1-16.4C1732,232.3,1743.1,230.3,1754.3,230.4z
		 M1754.3,366.1c13.3,0,23.2-4.5,29.7-13.5c6.4-9,9.7-22.1,9.6-39.4c0-17.3-3.2-30.5-9.6-39.6c-6.4-9.1-16.3-13.6-29.7-13.6
		c-13.6,0-23.6,4.6-30,13.7s-9.7,22.3-9.7,39.5c0,17.2,3.2,30.3,9.7,39.4C1730.7,361.6,1740.7,366.2,1754.3,366.1z"/>
	<path class="st1" d="M1860.5,393.5V232.9h23.6c5,0,8.3,2.3,9.9,7l2.5,11.9c2.8-3.1,5.7-5.9,8.8-8.6c3-2.6,6.4-4.8,9.9-6.7
		c3.6-1.9,7.3-3.4,11.3-4.5c4.3-1.1,8.8-1.7,13.2-1.7c10.1,0,18.5,2.7,25,8.2s11.4,12.8,14.6,21.8c2.3-5.1,5.5-9.7,9.4-13.7
		c3.6-3.7,7.8-6.8,12.4-9.3c4.5-2.4,9.3-4.2,14.3-5.3c5-1.1,10.1-1.7,15.3-1.7c8.1-0.1,16.1,1.2,23.6,4.1
		c6.6,2.5,12.6,6.6,17.4,11.9c4.9,5.5,8.5,12,10.7,19.1c2.6,8.4,3.8,17.1,3.7,25.8v102.2h-38.7V291.3c0-10.2-2.2-17.9-6.7-23.1
		c-4.5-5.2-11.1-7.8-19.7-7.7c-3.8,0-7.5,0.6-11,2c-3.3,1.3-6.4,3.3-8.9,5.9c-2.7,2.7-4.7,6-6,9.6c-1.5,4.3-2.3,8.8-2.2,13.3v102.2
		H1954V291.3c0-10.7-2.2-18.6-6.5-23.5s-10.7-7.4-19.2-7.3c-5.5,0-10.8,1.4-15.6,4.2c-5.1,3-9.7,6.8-13.5,11.3v117.6L1860.5,393.5z"
		/>
	<path class="st1" d="M2121,446V233h23.6c2.3-0.1,4.5,0.5,6.4,1.7c1.8,1.2,3.1,3.2,3.4,5.3l3.1,14.9c6.3-7.3,13.9-13.4,22.3-18
		c8.4-4.6,18.2-6.9,29.5-6.9c8.3-0.1,16.5,1.8,24,5.5c7.4,3.8,13.8,9.2,18.8,15.9c5.3,6.9,9.3,15.5,12.2,25.7s4.3,21.8,4.3,35
		c0.1,11.3-1.5,22.5-4.9,33.3c-2.9,9.6-7.6,18.7-13.9,26.6c-5.9,7.4-13.3,13.4-21.8,17.6c-8.9,4.3-18.7,6.5-28.6,6.3
		c-9.1,0-16.8-1.4-23.1-4.2c-6.3-2.8-12.1-6.7-17-11.5V446L2121,446z M2196.1,260.5c-8,0-14.9,1.7-20.6,5.1
		c-6.1,3.8-11.5,8.6-15.9,14.3v72c4.4,5.4,9.2,9.2,14.3,11.3c5.3,2.2,11,3.3,16.7,3.2c5.5,0.1,10.9-1,15.9-3.3
		c4.8-2.2,8.9-5.7,12-10c3.6-5.1,6.2-10.9,7.6-17c1.9-7.9,2.8-16,2.7-24.2c0.1-8-0.6-16-2.3-23.9c-1.2-5.7-3.4-11-6.5-15.9
		c-2.6-3.8-6.1-6.9-10.3-8.9C2205.5,261.4,2200.8,260.4,2196.1,260.5z"/>
	<path class="st1" d="M2420.7,393.5h-17.4c-3,0.1-5.9-0.4-8.6-1.6c-2.1-1.1-3.6-3.3-4.7-6.7l-3.4-11.4c-3.8,3.4-7.8,6.7-12,9.6
		c-3.8,2.7-7.9,5.1-12.1,7c-4.3,1.9-8.7,3.3-13.3,4.2c-5.2,1-10.4,1.4-15.6,1.4c-6.4,0.1-12.7-0.9-18.8-2.7
		c-5.5-1.7-10.5-4.5-14.8-8.2c-4.2-3.8-7.5-8.4-9.6-13.7c-2.4-6-3.6-12.5-3.4-19c0-6.3,1.7-12.5,4.8-18c3.2-5.9,8.5-11.3,15.9-16
		c7.4-4.7,17.3-8.7,29.6-11.9c12.3-3.1,27.6-4.7,45.9-4.7v-9.5c0-10.8-2.3-18.8-6.8-24.1s-11.1-7.8-19.8-7.8
		c-5.3-0.1-10.6,0.6-15.6,2.2c-3.8,1.3-7.4,2.9-10.9,4.9c-3.1,1.8-5.9,3.5-8.5,4.9c-2.6,1.5-5.6,2.2-8.6,2.2c-2.4,0.1-4.8-0.6-6.7-2
		c-1.8-1.3-3.4-3-4.5-5l-7-12.4c18.5-16.9,40.7-25.3,66.8-25.3c8.6-0.2,17.1,1.4,25.1,4.6c7.1,2.9,13.5,7.3,18.7,12.8
		c5.2,5.7,9.2,12.3,11.7,19.6c2.7,8,4.1,16.5,4,25L2420.7,393.5z M2345.6,369.4c3.7,0,7.4-0.3,11-1.1c3.3-0.7,6.5-1.8,9.5-3.2
		c3-1.5,5.9-3.3,8.6-5.3c3-2.3,5.8-4.8,8.4-7.5v-26.9c-9.5-0.1-18.9,0.6-28.3,2.1c-6.3,1-12.4,2.9-18.2,5.4
		c-4.6,2.2-7.9,4.8-9.8,7.7c-1.9,2.8-2.9,6.2-2.9,9.6c0,6.8,2,11.7,6,14.7C2333.9,368,2339.1,369.4,2345.6,369.4z"/>
	<path class="st1" d="M2455.6,393.5V232.9h23.6c5,0,8.3,2.3,9.9,7l2.7,12.7c3.2-3.3,6.6-6.3,10.3-9.1c3.6-2.7,7.4-5.1,11.4-7.1
		c4.1-2,8.4-3.5,12.9-4.5c4.9-1.1,10-1.6,15-1.6c8-0.1,15.9,1.4,23.3,4.5c6.6,2.8,12.4,7.1,17,12.5c4.7,5.7,8.2,12.2,10.3,19.2
		c2.4,8,3.6,16.3,3.5,24.7v102.2h-38.6V291.3c0-9.8-2.3-17.4-6.8-22.8c-4.5-5.4-11.3-8.1-20.4-8.1c-6.5,0-13,1.5-18.8,4.5
		c-6.1,3.2-11.7,7.4-16.6,12.4v116.1H2455.6z"/>
	<path class="st1" d="M2681.8,437.7c-0.9,2.4-2.5,4.5-4.5,6.2c-1.8,1.4-4.6,2.1-8.4,2.1h-28.8l30.1-64.3l-65-148.7h33.8
		c3.1,0,5.5,0.7,7.2,2.2c1.6,1.4,2.9,3.1,3.8,5l34.3,83.3c1.2,2.8,2.2,5.6,3,8.5c0.8,2.9,1.6,5.8,2.2,8.8c0.8-3,1.8-6,2.7-8.8
		s2.1-5.7,3.2-8.6l32.3-83.1c0.8-2.1,2.3-3.9,4.1-5.2c1.9-1.3,4.2-2,6.5-2h31L2681.8,437.7z"/>
	<path class="st2" d="M794.9-147c3.6,0,7.2,0.7,10.6,2c3.8,1.5,7.3,3.9,10.2,6.9l59.2,62.3C849.5-42.4,816-16,777.5,0.8
		c-39,17.2-85.2,25.8-138.5,25.8c-48.9,0-92.7-8.3-131.4-25S436-37.9,409-67.2c-27-29.3-47.6-64.1-62.1-104.3
		c-14.4-40.2-21.6-83.8-21.6-131c0-48,8.2-92.1,24.7-132.3s39.5-74.9,69.1-104c29.6-29.2,65-51.8,106.3-68
		c41.2-16.2,86.8-24.3,136.6-24.4c22.9-0.1,45.8,2,68.3,6.4c20.5,4,40.5,9.9,59.9,17.7c18,7.2,35.1,16.2,51.3,26.9
		c15.1,10,29,21.6,41.5,34.7l-50.4,67.6c-3.4,4.2-7.2,8-11.5,11.3c-4.4,3.4-10.6,5.1-18.6,5.1c-5.2,0-10.3-1.2-15-3.5
		c-5.1-2.6-10.2-5.5-15-8.6c-5.3-3.4-11.1-7-17.5-11c-7.2-4.4-14.7-8-22.5-11c-9.9-3.7-20.1-6.6-30.5-8.7
		c-11.7-2.4-25.3-3.5-40.9-3.5c-27.1,0-51.8,4.8-74.2,14.3c-22,9.3-41.7,23.3-57.7,41.1c-16.1,17.8-28.6,39.4-37.5,64.7
		s-13.5,53.7-13.5,85.3c0,33,4.5,62.3,13.5,87.9s21.2,47.2,36.7,64.7c14.9,17.1,33.4,30.8,54.1,40c20.9,9.2,43.5,13.9,66.3,13.7
		c12.4,0.1,24.8-0.6,37.1-2c10.6-1.2,21.1-3.5,31.2-6.9c9.5-3.2,18.7-7.4,27.4-12.6c9.3-5.6,18.1-12,26.3-19.2
		c3.5-2.9,7.4-5.4,11.5-7.3C786.2-146,790.5-146.9,794.9-147z"/>
	<path class="st2" d="M1087.8-218.5V19.6H938.5v-643.7h209.4c46.5,0,86.2,4.8,119,14.4c32.8,9.6,59.6,22.9,80.4,40
		c20.8,17.1,35.9,37.3,45.3,60.5c9.4,23.3,14.1,48.6,14.1,76c0.1,20-2.7,40-8.4,59.2c-5.5,18.4-14,35.8-25,51.5
		c-11.3,16-25,30.3-40.7,42.2c-16.9,12.8-35.6,23.1-55.4,30.5c10.1,5,19.5,11.3,28.1,18.5c9,7.7,16.7,16.8,22.8,26.9l136.9,224
		h-135.2c-25,0-43-9.4-53.9-28.3l-106.9-186.9c-4.7-8.2-10.2-14.1-16.6-17.7c-6.3-3.5-15.2-5.3-26.7-5.3L1087.8-218.5z
		 M1087.8-321.5h60.1c20.3,0,37.6-2.6,51.9-7.7c14.3-5.2,26-12.3,35.1-21.4c9-9,15.8-19.9,19.9-32c4.2-12.8,6.3-26.1,6.2-39.5
		c0-28.3-9.2-50.4-27.6-66.3s-46.9-23.9-85.5-23.9h-60.1L1087.8-321.5z"/>
	<path class="st2" d="M2134.8-302.5c0,46.5-8,89.8-24.1,129.9s-38.7,74.9-67.8,104.5c-29.2,29.6-64.3,52.8-105.4,69.6
		s-86.7,25.2-136.7,25.2c-50.1,0-95.7-8.4-136.9-25.2c-41.2-16.8-76.5-40-105.8-69.6c-29.3-29.6-52-64.4-68-104.5
		s-24-83.4-24.1-129.9c0-46.5,8-89.8,24.1-129.9c16.1-40.1,38.7-74.8,68-104.3c29.3-29.5,64.6-52.6,105.8-69.4
		c41.2-16.8,86.8-25.2,136.9-25.2c50.1,0,95.6,8.5,136.7,25.4c41.1,16.9,76.2,40.1,105.4,69.6c29.2,29.5,51.8,64.2,67.8,104.3
		C2126.8-391.9,2134.8-348.7,2134.8-302.5z M1982-302.5c0-31.8-4.1-60.5-12.4-85.9s-20.1-47-35.6-64.7c-15.5-17.7-35-31.6-56.8-40.7
		c-22.4-9.4-47.9-14.1-76.4-14.1c-28.9,0-54.6,4.7-77.1,14.1c-21.9,9-41.4,22.9-57,40.7c-15.5,17.7-27.3,39.2-35.6,64.7
		s-12.4,54.1-12.4,85.9c0,32.1,4.1,60.9,12.4,86.4s20.1,47.1,35.6,64.8c15.6,17.7,35.1,31.6,57,40.4c22.5,9.3,48.2,13.9,77.1,13.9
		c28.6,0,54.1-4.6,76.4-13.9c21.8-8.9,41.2-22.7,56.7-40.4c15.5-17.7,27.3-39.3,35.6-64.7S1982-270.3,1982-302.5L1982-302.5z"/>
	<path class="st2" d="M2560.7-493.3c-4.4,7.1-9,12.4-13.9,15.9s-11.1,5.3-18.8,5.3c-6.8,0-14.1-2.1-21.9-6.4
		c-7.8-4.3-16.6-9.1-26.5-14.4c-10.8-5.7-22.1-10.5-33.8-14.4c-12.7-4.3-27.1-6.4-43.3-6.4c-28,0-48.8,6-62.5,17.9
		s-20.5,28.1-20.5,48.4c0,13,4.1,23.7,12.4,32.3c8.3,8.5,19.1,15.9,32.5,22.1c14.9,6.7,30.3,12.4,46,17
		c17.2,5.2,34.8,10.9,52.8,17.2c18,6.4,35.7,13.8,52.8,22.3c17,8.4,32.5,19.4,45.9,32.7c13.4,13.3,24.2,29.4,32.5,48.4
		c8.2,19,12.4,41.9,12.4,68.7c0,29.8-5.2,57.6-15.5,83.5c-10,25.5-25.3,48.6-44.9,67.8c-19.6,19.3-43.7,34.5-72.4,45.5
		c-28.7,11-61.4,16.5-97.9,16.5c-20.5-0.1-41-2.1-61.2-6.2c-20.6-4.1-40.7-9.9-60.3-17.4c-19-7.3-37.3-16.2-54.8-26.7
		c-16.2-9.6-31.2-21.2-44.6-34.5l44.2-69.8c3.3-5.4,8.1-9.8,13.7-12.8c5.8-3.2,12.4-4.9,19-4.9c8.8,0,17.7,2.8,26.7,8.4
		c9,5.6,19.1,11.8,30.5,18.5c12.5,7.3,25.5,13.5,39.1,18.6c14.7,5.6,32.1,8.4,52.1,8.4c27.1,0,48.2-6,63.2-17.9s22.5-30.9,22.5-56.8
		c0-15-4.1-27.3-12.4-36.7c-8.2-9.4-19.1-17.2-32.5-23.4c-14.8-6.7-30.1-12.1-45.7-16.3c-17-4.7-34.6-9.9-52.6-15.7
		c-18-5.8-35.6-12.9-52.6-21.2c-17-8.4-32.5-19.6-45.7-33.1c-13.4-13.7-24.2-30.8-32.5-51.2c-8.2-20.5-12.4-45.7-12.4-75.8
		c0-24.3,5-48.3,14.6-70.7c9.9-23.2,24.5-44.1,42.9-61.4c18.8-18,42-32.3,69.4-43.1c27.4-10.8,58.8-16.1,94.1-16.1
		c19.3,0,38.6,1.5,57.6,4.6c18.1,3,35.9,7.5,53.2,13.7c16.3,5.8,32,13.1,47,21.6c14.1,8,27.2,17.6,39.1,28.5L2560.7-493.3z"/>
	<path class="st2" d="M3035.1-493.3c-4.4,7.1-9.1,12.4-13.9,15.9c-4.9,3.5-11.1,5.3-18.8,5.3c-6.8,0-14.1-2.1-21.9-6.4
		c-7.8-4.3-16.6-9.1-26.5-14.4c-10.8-5.7-22.1-10.5-33.8-14.4c-12.7-4.3-27.1-6.4-43.3-6.4c-28,0-48.8,6-62.5,17.9
		s-20.5,28.1-20.5,48.4c0,13,4.1,23.7,12.4,32.3c8.3,8.5,19.1,15.9,32.5,22.1c14.9,6.7,30.2,12.4,45.9,17
		c17.2,5.2,34.8,10.9,52.8,17.2c18,6.4,35.7,13.8,52.8,22.3c17,8.4,32.5,19.4,45.9,32.7c13.4,13.3,24.2,29.4,32.5,48.4
		c8.2,19,12.4,41.9,12.4,68.7c0,29.8-5.2,57.6-15.5,83.5c-10,25.5-25.3,48.6-44.8,67.8c-19.6,19.3-43.7,34.5-72.4,45.5
		s-61.3,16.5-97.8,16.5c-20.6-0.1-41-2.1-61.2-6.2c-20.6-4.1-40.7-9.9-60.3-17.4c-19-7.3-37.3-16.2-54.8-26.7
		c-16.2-9.6-31.2-21.2-44.6-34.5l44.2-69.8c3.3-5.4,8.1-9.8,13.7-12.8c5.8-3.2,12.4-4.9,19-4.9c8.8,0,17.7,2.8,26.7,8.4
		c9,5.6,19.1,11.8,30.5,18.5c12.5,7.3,25.5,13.5,39.1,18.6c14.7,5.6,32.1,8.4,52.1,8.4c27.1,0,48.2-6,63.2-17.9s22.5-30.9,22.5-56.8
		c0-15-4.1-27.3-12.4-36.7c-8.2-9.4-19.1-17.2-32.5-23.4c-14.8-6.7-30.1-12.1-45.7-16.3c-17.1-4.7-34.6-9.9-52.6-15.7
		c-18-5.8-35.6-12.9-52.6-21.2c-17-8.3-32.5-19.6-45.7-33.1c-13.4-13.7-24.2-30.8-32.5-51.2c-8.2-20.5-12.4-45.7-12.4-75.8
		c0-24.3,5-48.3,14.6-70.7c9.9-23.2,24.5-44.1,42.9-61.4c18.8-18,42-32.3,69.4-43.1c27.4-10.8,58.8-16.1,94.1-16.1
		c19.3,0,38.6,1.5,57.6,4.6c18.1,3,35.9,7.5,53.2,13.7c16.3,5.8,32,13.1,47,21.6c14.1,8,27.2,17.6,39.1,28.5L3035.1-493.3z"/>
	<path class="st2" d="M3314.4,19.6h-150.2v-643.7h150.2L3314.4,19.6z"/>
	<path class="st2" d="M3587.8-311.3l-199.2-312.8h149.3c9.7,0,16.9,1.3,21.4,3.8c4.6,2.5,8.6,6.7,12.2,12.6l128.1,216.9
		c1.4-3.8,3.1-7.5,5.1-11c1.9-3.5,4-7.2,6.4-11l112.2-192.6c7.3-12.4,17.4-18.5,30.1-18.5h143.1l-201.9,306.1l206.3,337.5h-149.3
		c-9.7,0-17.6-2.4-23.6-7.1c-5.9-4.5-10.8-10.3-14.4-16.8l-129-225.3c-2.1,5.9-4.8,11.5-8,16.8L3556.4-4.3
		c-3.7,6.3-8.4,11.9-14.1,16.6c-5.9,4.9-13.3,7.3-22.1,7.3h-139.6L3587.8-311.3z"/>
	<circle class="st1" cx="3697.9" cy="-837.6" r="137.2"/>
</g>
<g id="Layer_2">
	<g>
		<path class="st3" d="M643.3-225.4c-237.7,0-451.2,99.9-597.8,258.6C189.1-98.6,383.4-179.5,597.3-179.5
			c441.8,0,800,345.2,800,770.9c0,196.7-76.4,376.1-202.2,512.3c152.9-140.4,248.2-338.6,248.2-558.2
			C1443.3,119.8,1085.1-225.4,643.3-225.4z"/>
		<g>
			<g>
				<g>
					<g>
						<path class="st4" d="M253.4,1098.3v-928h394.4c99.2,0,171.2,8.3,216.2,25s80.9,46.3,107.9,89c27,42.7,40.5,91.4,40.5,146.3
							c0,69.7-20.5,127.2-61.4,172.6s-102,74-183.4,85.8c40.4,23.6,73.8,49.5,100.1,77.8s61.8,78.4,106.4,150.5l113.3,180.9h-224
							L728.4,896c-48.2-71.9-81.2-117.2-99-135.9s-36.6-31.5-56.5-38.5s-51.4-10.4-94.5-10.4h-38.1v387H253.4z M440.4,563.3h138.8
							c90,0,146.2-3.8,168.6-11.4c22.4-7.6,39.9-20.7,52.6-39.3c12.7-18.6,19-41.9,19-69.8c0-31.3-8.3-56.6-25-75.8
							s-40.3-31.4-70.7-36.5c-15.2-2.1-60.8-3.2-136.9-3.2H440.4V563.3z"/>
					</g>
				</g>
				<g>
					<g>
						<path class="st4" d="M205.4,1050.3v-928h394.4c99.2,0,171.2,8.3,216.2,25s80.9,46.3,107.9,89c27,42.7,40.5,91.4,40.5,146.3
							c0,69.7-20.5,127.2-61.4,172.6s-102,74-183.4,85.8c40.4,23.6,73.8,49.5,100.1,77.8s61.8,78.4,106.4,150.5l113.3,180.9h-224
							L680.5,848c-48.2-71.9-81.2-117.2-99-135.9s-36.6-31.5-56.5-38.5s-51.4-10.4-94.5-10.4h-38.1v387H205.4z M392.4,515.3h138.8
							c90,0,146.2-3.8,168.6-11.4c22.4-7.6,39.9-20.7,52.6-39.3c12.7-18.6,19-41.9,19-69.8c0-31.3-8.3-56.6-25-75.8
							s-40.3-31.4-70.7-36.5c-15.2-2.1-60.8-3.2-136.9-3.2H392.4V515.3z"/>
					</g>
				</g>
			</g>
		</g>
	</g>
</g>
</svg>
