<svg id="Layer_1" data-name="Layer 1" xmlns="http://www.w3.org/2000/svg" viewBox="0 0 4382.05 1613.34"><defs><style>.cls-1{fill:#f7981d;}.cls-2{fill:#003d71;}</style></defs><title>Artboard 1</title><path class="cls-1" d="M542.32,1459.85H525a18.63,18.63,0,0,1-8.61-1.64c-2.09-1.09-3.65-3.31-4.7-6.66l-3.44-11.42a134.36,134.36,0,0,1-12,9.63,74.05,74.05,0,0,1-12.14,7,62.19,62.19,0,0,1-13.3,4.22,79.94,79.94,0,0,1-15.65,1.4,61.65,61.65,0,0,1-18.79-2.74,40.53,40.53,0,0,1-14.79-8.24,37.41,37.41,0,0,1-9.62-13.67,48.52,48.52,0,0,1-3.44-19,37.45,37.45,0,0,1,4.77-18q4.77-8.88,15.89-16t29.58-11.86q18.47-4.69,45.86-4.71v-9.46q0-16.25-6.81-24.05t-19.8-7.81a47.92,47.92,0,0,0-15.65,2.19,61.12,61.12,0,0,0-10.88,4.93q-4.62,2.73-8.53,4.93a17.23,17.23,0,0,1-8.61,2.19,11.16,11.16,0,0,1-6.73-2,16.1,16.1,0,0,1-4.54-5l-7-12.37q27.71-25.35,66.83-25.35A64.57,64.57,0,0,1,508,1300.9a53.52,53.52,0,0,1,18.7,12.84,54.94,54.94,0,0,1,11.66,19.64,75.55,75.55,0,0,1,4,25Zm-75.13-24.1a52.15,52.15,0,0,0,11-1.08,42.18,42.18,0,0,0,9.47-3.24,51.27,51.27,0,0,0,8.61-5.31,78.48,78.48,0,0,0,8.37-7.47v-26.89a157.66,157.66,0,0,0-28.25,2.13,75,75,0,0,0-18.24,5.44q-6.89,3.32-9.78,7.73a17.17,17.17,0,0,0-2.9,9.62q0,10.24,6,14.65T467.19,1435.75Z"/><path class="cls-1" d="M614.48,1233.52h34a14.21,14.21,0,0,1,8.92,2.66,16.37,16.37,0,0,1,5.16,6.89l53.22,138q2.65,6.74,5.09,14.79t4.61,17a194.35,194.35,0,0,1,8.92-31.78l53.07-138a16.18,16.18,0,0,1,5-6.57,13.58,13.58,0,0,1,8.93-3h34l-91.41,226.33h-38Z"/><path class="cls-1" d="M900.76,1296.75a78.12,78.12,0,0,1,27.94,4.86,61.28,61.28,0,0,1,22,14.16,64.77,64.77,0,0,1,14.4,22.86q5.16,13.53,5.16,30.91a56.17,56.17,0,0,1-.39,7.28,11.81,11.81,0,0,1-1.4,4.54,5.75,5.75,0,0,1-2.75,2.35,11.66,11.66,0,0,1-4.38.69H862.1q1.71,24.75,13.3,36.32t30.68,11.59a53.17,53.17,0,0,0,16.2-2.19,76.07,76.07,0,0,0,11.89-4.86q5.08-2.65,8.93-4.85a14.94,14.94,0,0,1,7.43-2.19,8.33,8.33,0,0,1,4.07.94,8.93,8.93,0,0,1,3,2.66l11.27,14.09a64.26,64.26,0,0,1-14.4,12.6,81,81,0,0,1-16.66,8.13,91.31,91.31,0,0,1-17.69,4.31,125.87,125.87,0,0,1-17.46,1.25,85.65,85.65,0,0,1-31.14-5.56,69.75,69.75,0,0,1-25-16.43,77.06,77.06,0,0,1-16.74-26.92q-6.11-16.05-6.11-37.18a88.84,88.84,0,0,1,5.32-30.91,74.5,74.5,0,0,1,15.26-25.2,72,72,0,0,1,24.26-17Q882.76,1296.77,900.76,1296.75Zm.78,27.71q-16.9,0-26.45,9.55t-12.21,27.07h72.63a48.38,48.38,0,0,0-2-14.16,32.81,32.81,0,0,0-6.26-11.66,29.64,29.64,0,0,0-10.65-7.9A36.2,36.2,0,0,0,901.54,1324.46Z"/><path class="cls-1" d="M1065,1296.75a78.12,78.12,0,0,1,27.94,4.86,61.28,61.28,0,0,1,22,14.16,64.91,64.91,0,0,1,14.4,22.86q5.16,13.53,5.16,30.91a56.17,56.17,0,0,1-.39,7.28,11.63,11.63,0,0,1-1.41,4.54,5.69,5.69,0,0,1-2.74,2.35,11.7,11.7,0,0,1-4.38.69h-99.23q1.71,24.75,13.3,36.32t30.68,11.59a53.17,53.17,0,0,0,16.2-2.19,76.07,76.07,0,0,0,11.89-4.86q5.09-2.65,8.93-4.85a14.94,14.94,0,0,1,7.43-2.19,8.35,8.35,0,0,1,4.07.94,8.93,8.93,0,0,1,3,2.66l11.27,14.09a64.7,64.7,0,0,1-14.4,12.6,81,81,0,0,1-16.67,8.13,91.21,91.21,0,0,1-17.68,4.31,125.87,125.87,0,0,1-17.46,1.25,85.65,85.65,0,0,1-31.14-5.56,69.66,69.66,0,0,1-25.05-16.43,77.22,77.22,0,0,1-16.75-26.92q-6.09-16.05-6.1-37.18a88.84,88.84,0,0,1,5.32-30.91,74.5,74.5,0,0,1,15.26-25.2,72,72,0,0,1,24.26-17Q1046.95,1296.77,1065,1296.75Zm.78,27.71q-16.9,0-26.45,9.55t-12.21,27.07h72.62a48.38,48.38,0,0,0-2-14.16,32.81,32.81,0,0,0-6.26-11.66,29.64,29.64,0,0,0-10.65-7.9A36.23,36.23,0,0,0,1065.73,1324.46Z"/><path class="cls-1" d="M1238.06,1459.85H1203l-63.86-160.59h32.08a12.11,12.11,0,0,1,7.12,2,10.53,10.53,0,0,1,4,5.17l31,85.77q2.65,7.51,4.46,14.72t3.2,14.4c1-4.8,2-9.6,3.22-14.4a133.2,133.2,0,0,1,4.61-14.72l31.77-85.77a10.74,10.74,0,0,1,3.92-5.17,11.23,11.23,0,0,1,6.73-2h30.52Z"/><path class="cls-1" d="M1447.33,1459.85H1430a18.68,18.68,0,0,1-8.61-1.64q-3.13-1.64-4.69-6.66l-3.45-11.42a133,133,0,0,1-12,9.63,74,74,0,0,1-12.13,7,62.46,62.46,0,0,1-13.31,4.22,79.94,79.94,0,0,1-15.65,1.4,61.54,61.54,0,0,1-18.78-2.74,40.45,40.45,0,0,1-14.79-8.24,37.43,37.43,0,0,1-9.63-13.67,48.52,48.52,0,0,1-3.44-19,37.56,37.56,0,0,1,4.77-18q4.77-8.88,15.89-16t29.58-11.86q18.46-4.69,45.86-4.71v-9.46q0-16.25-6.81-24.05t-19.79-7.81a47.94,47.94,0,0,0-15.66,2.19,60.68,60.68,0,0,0-10.87,4.93q-4.63,2.73-8.54,4.93a17.23,17.23,0,0,1-8.61,2.19,11.13,11.13,0,0,1-6.72-2,16,16,0,0,1-4.54-5l-7-12.37q27.71-25.35,66.84-25.35a64.55,64.55,0,0,1,25.12,4.61,53.34,53.34,0,0,1,18.7,12.84,54.79,54.79,0,0,1,11.66,19.64,75.55,75.55,0,0,1,4,25Zm-75.14-24.1a52,52,0,0,0,11-1.08,41.84,41.84,0,0,0,9.47-3.24,51.27,51.27,0,0,0,8.61-5.31,78.48,78.48,0,0,0,8.37-7.47v-26.89a157.74,157.74,0,0,0-28.25,2.13,74.78,74.78,0,0,0-18.23,5.44q-6.9,3.32-9.79,7.73a17.16,17.16,0,0,0-2.89,9.62q0,10.24,6,14.65T1372.19,1435.75Z"/><path class="cls-1" d="M1652.37,1333.23a19,19,0,0,1-3.37,3.44,7.71,7.71,0,0,1-4.77,1.25,10.63,10.63,0,0,1-5.79-1.8c-1.88-1.19-4.12-2.56-6.73-4.07a51.52,51.52,0,0,0-9.31-4.07,42.89,42.89,0,0,0-13.39-1.8,40.84,40.84,0,0,0-17.84,3.68,33.92,33.92,0,0,0-12.76,10.56,47.69,47.69,0,0,0-7.59,16.68,89.44,89.44,0,0,0-2.5,22.14,87.16,87.16,0,0,0,2.73,22.86,49.1,49.1,0,0,0,7.91,16.83,34,34,0,0,0,12.52,10.32,38,38,0,0,0,16.59,3.52q9.24,0,15-2.27a46.86,46.86,0,0,0,9.63-5q3.9-2.73,6.81-5a10.26,10.26,0,0,1,6.49-2.26,7.84,7.84,0,0,1,7,3.6l11.12,14.09a70.13,70.13,0,0,1-13.93,12.6,75.68,75.68,0,0,1-15.57,8.13,79.26,79.26,0,0,1-16.68,4.31,117.6,117.6,0,0,1-17.06,1.25,71.08,71.08,0,0,1-28-5.56,65.36,65.36,0,0,1-22.94-16.2,78.08,78.08,0,0,1-15.49-26q-5.72-15.42-5.71-35.15a101.94,101.94,0,0,1,5.09-32.79,74.19,74.19,0,0,1,14.94-26.14,68.59,68.59,0,0,1,24.42-17.3q14.55-6.24,33.5-6.26,18,0,31.53,5.8a76.89,76.89,0,0,1,24.34,16.59Z"/><path class="cls-1" d="M1754.26,1296.75a87.86,87.86,0,0,1,32.64,5.8,70.28,70.28,0,0,1,25,16.44,72.72,72.72,0,0,1,16,26,99.08,99.08,0,0,1,5.63,34.28q0,19.1-5.63,34.44a74.43,74.43,0,0,1-16,26.14,69.45,69.45,0,0,1-25,16.59,95.09,95.09,0,0,1-65.35,0,70.08,70.08,0,0,1-25.12-16.59,74.6,74.6,0,0,1-16.12-26.14q-5.73-15.33-5.72-34.44a97.44,97.44,0,0,1,5.72-34.28,72.88,72.88,0,0,1,16.12-26,70.94,70.94,0,0,1,25.12-16.44A88.42,88.42,0,0,1,1754.26,1296.75Zm0,135.71q20,0,29.67-13.46t9.62-39.44q0-26-9.62-39.61t-29.67-13.62q-20.34,0-30,13.7t-9.7,39.53q0,25.82,9.7,39.37T1754.26,1432.46Z"/><path class="cls-1" d="M1860.54,1459.85V1299.26h23.64q7.5,0,9.86,7l2.5,11.9a92.9,92.9,0,0,1,8.84-8.61,56.8,56.8,0,0,1,9.87-6.73,53.5,53.5,0,0,1,11.26-4.46,50,50,0,0,1,13.23-1.65q15.18,0,25,8.22t14.63,21.84a49.33,49.33,0,0,1,9.39-13.7,51.58,51.58,0,0,1,12.37-9.31,56.88,56.88,0,0,1,14.32-5.32,68.68,68.68,0,0,1,15.26-1.73,64.13,64.13,0,0,1,23.63,4.08,45.21,45.21,0,0,1,17.38,11.9,52.19,52.19,0,0,1,10.72,19.09,83.21,83.21,0,0,1,3.68,25.82v102.21h-38.66V1357.64q0-15.33-6.73-23.09t-19.72-7.74a29.57,29.57,0,0,0-11,2,26.36,26.36,0,0,0-8.92,5.88,26.81,26.81,0,0,0-6,9.62,37.47,37.47,0,0,0-2.19,13.3v102.21H1954V1357.64q0-16.11-6.5-23.48t-19.17-7.35a30.89,30.89,0,0,0-15.58,4.15,52.49,52.49,0,0,0-13.54,11.34v117.55Z"/><path class="cls-1" d="M2121,1512.29v-213h23.63a11.66,11.66,0,0,1,6.42,1.72,8.11,8.11,0,0,1,3.44,5.32l3.13,14.87a80.82,80.82,0,0,1,22.31-18q12.59-6.9,29.5-6.89a52.86,52.86,0,0,1,24,5.47,54,54,0,0,1,18.78,15.89q7.91,10.41,12.21,25.67t4.3,35a110.08,110.08,0,0,1-4.85,33.33,81.62,81.62,0,0,1-13.85,26.61,64.13,64.13,0,0,1-21.76,17.61,63.26,63.26,0,0,1-28.57,6.34q-13.6,0-23.08-4.15a56.26,56.26,0,0,1-17-11.5v65.74Zm75.13-185.48q-12.06,0-20.59,5.09a59.44,59.44,0,0,0-15.89,14.31v72q6.58,8.13,14.33,11.34a42.91,42.91,0,0,0,16.67,3.21,37.47,37.47,0,0,0,15.88-3.28,30.73,30.73,0,0,0,12-10,49.59,49.59,0,0,0,7.6-17,97.22,97.22,0,0,0,2.66-24.18,107.63,107.63,0,0,0-2.27-23.88,46,46,0,0,0-6.5-15.88,25.7,25.7,0,0,0-10.25-8.93A32.12,32.12,0,0,0,2196.13,1326.81Z"/><path class="cls-1" d="M2420.73,1459.85h-17.37a18.63,18.63,0,0,1-8.61-1.64c-2.09-1.09-3.65-3.31-4.7-6.66l-3.44-11.42a134.36,134.36,0,0,1-12,9.63,74.05,74.05,0,0,1-12.14,7,62.19,62.19,0,0,1-13.3,4.22,80,80,0,0,1-15.65,1.4,61.61,61.61,0,0,1-18.79-2.74,40.53,40.53,0,0,1-14.79-8.24,37.41,37.41,0,0,1-9.62-13.67,48.52,48.52,0,0,1-3.44-19,37.45,37.45,0,0,1,4.77-18q4.77-8.88,15.88-16t29.59-11.86q18.46-4.69,45.86-4.71v-9.46q0-16.25-6.81-24.05t-19.8-7.81a47.92,47.92,0,0,0-15.65,2.19,61.12,61.12,0,0,0-10.88,4.93q-4.62,2.73-8.53,4.93a17.23,17.23,0,0,1-8.61,2.19,11.16,11.16,0,0,1-6.73-2,16.1,16.1,0,0,1-4.54-5l-7-12.37q27.7-25.35,66.83-25.35a64.52,64.52,0,0,1,25.12,4.61,53.47,53.47,0,0,1,18.71,12.84,54.94,54.94,0,0,1,11.66,19.64,75.55,75.55,0,0,1,4,25Zm-75.13-24.1a52.15,52.15,0,0,0,11-1.08,42.18,42.18,0,0,0,9.47-3.24,51.27,51.27,0,0,0,8.61-5.31,78.48,78.48,0,0,0,8.37-7.47v-26.89a157.66,157.66,0,0,0-28.25,2.13,75,75,0,0,0-18.24,5.44q-6.89,3.32-9.78,7.73a17.17,17.17,0,0,0-2.9,9.62q0,10.24,6,14.65T2345.6,1435.75Z"/><path class="cls-1" d="M2455.64,1459.85V1299.26h23.63q7.52,0,9.86,7l2.66,12.69a87.29,87.29,0,0,1,10.26-9.08,70.34,70.34,0,0,1,11.42-7.05,58.73,58.73,0,0,1,12.91-4.54,68.05,68.05,0,0,1,15-1.57,57.61,57.61,0,0,1,23.32,4.47,46,46,0,0,1,17,12.52,55.12,55.12,0,0,1,10.33,19.25,82.11,82.11,0,0,1,3.52,24.65v102.21H2556.9V1357.64q0-14.7-6.8-22.77t-20.43-8.06a40.18,40.18,0,0,0-18.78,4.54,67.06,67.06,0,0,0-16.59,12.36v116.14Z"/><path class="cls-1" d="M2681.81,1504a14.92,14.92,0,0,1-4.46,6.18c-1.82,1.4-4.61,2.11-8.37,2.11h-28.8l30.05-64.33-65-148.7h33.81c3.14,0,5.53.73,7.2,2.19a14.54,14.54,0,0,1,3.76,5l34.28,83.27a73.41,73.41,0,0,1,3,8.46c.83,2.92,1.57,5.83,2.19,8.76.84-3,1.75-6,2.74-8.76s2.06-5.7,3.21-8.61l32.25-83.12a11.47,11.47,0,0,1,4.14-5.17,11.09,11.09,0,0,1,6.5-2h31Z"/><path class="cls-2" d="M794.93,919.36a30.39,30.39,0,0,1,10.6,2,29.19,29.19,0,0,1,10.16,6.86l59.2,62.28a245.8,245.8,0,0,1-97.41,76.65Q718.94,1093,639,1093q-73.34,0-131.43-25T409,999.1q-40.43-44-62.08-104.25t-21.64-131q0-72,24.74-132.31t69.14-104q44.4-43.74,106.25-68T662,435.17a347.83,347.83,0,0,1,68.25,6.41,333.76,333.76,0,0,1,59.86,17.67,283.08,283.08,0,0,1,51.25,26.94,248,248,0,0,1,41.52,34.68l-50.36,67.6A64.31,64.31,0,0,1,821,599.74q-6.63,5.09-18.56,5.08a33,33,0,0,1-15-3.54,165.13,165.13,0,0,1-15-8.62q-7.95-5.07-17.45-11a134.44,134.44,0,0,0-22.53-11A188.68,188.68,0,0,0,701.94,562q-17.48-3.53-40.87-3.53-40.65,0-74.22,14.35a162.74,162.74,0,0,0-57.65,41.09q-24.09,26.73-37.55,64.72t-13.48,85.26q0,49.49,13.48,87.92t36.67,64.72a155.35,155.35,0,0,0,54.12,40,161.56,161.56,0,0,0,66.26,13.69,318.68,318.68,0,0,0,37.11-2A152.72,152.72,0,0,0,717,961.33a144.18,144.18,0,0,0,27.4-12.59,181,181,0,0,0,26.27-19.21,52.31,52.31,0,0,1,11.49-7.3A30.36,30.36,0,0,1,794.93,919.36Z"/><path class="cls-2" d="M1087.82,847.79v238.13H938.5V442.24h209.41q69.78,0,119,14.36t80.41,40q31.14,25.62,45.28,60.53t14.14,76a204.11,204.11,0,0,1-8.4,59.19,179.32,179.32,0,0,1-25,51.47,193.52,193.52,0,0,1-40.65,42.19,215.78,215.78,0,0,1-55.45,30.48A140.49,140.49,0,0,1,1305.39,835a110.77,110.77,0,0,1,22.76,26.94l136.95,224H1329.92q-37.56,0-53.9-28.28L1169.11,870.76q-7.06-12.36-16.57-17.67t-26.72-5.3Zm0-102.93h60.09q30.48,0,51.91-7.74t35.11-21.42a81.51,81.51,0,0,0,19.88-32,123,123,0,0,0,6.19-39.54q0-42.4-27.61-66.27T1147.91,554h-60.09Z"/><path class="cls-2" d="M2134.83,763.85q0,69.81-24.09,129.9t-67.81,104.47q-43.73,44.4-105.36,69.58T1800.84,1093q-75.1,0-136.95-25.19t-105.8-69.58q-44-44.38-68-104.47T1466,763.85q0-69.78,24.08-129.88t68-104.26q44-44.18,105.8-69.35t136.95-25.19q75.09,0,136.73,25.4t105.36,69.58q43.74,44.19,67.81,104.26T2134.83,763.85Zm-152.86,0q0-47.72-12.37-85.92T1934,613.21a153.48,153.48,0,0,0-56.77-40.65q-33.58-14.13-76.43-14.13-43.29,0-77.09,14.13a153.14,153.14,0,0,0-57,40.65q-23.19,26.5-35.56,64.72t-12.37,85.92q0,48.17,12.37,86.37T1666.76,915a151,151,0,0,0,57,40.41q33.81,13.9,77.09,13.92,42.86,0,76.43-13.92A151.34,151.34,0,0,0,1934,915q23.19-26.52,35.56-64.74T1982,763.85Z"/><path class="cls-2" d="M2560.68,573q-6.61,10.59-13.91,15.9t-18.77,5.3q-10.17,0-21.87-6.4t-26.51-14.36a221.29,221.29,0,0,0-33.79-14.36q-19-6.4-43.3-6.41-42,0-62.51,17.9T2319.47,619q0,19.44,12.38,32.25t32.46,22.09a346.77,346.77,0,0,0,46,17q25.84,7.73,52.8,17.23a472.23,472.23,0,0,1,52.78,22.31,176.24,176.24,0,0,1,45.95,32.68q20.1,19.89,32.47,48.38t12.37,68.71q0,44.63-15.46,83.5a195.4,195.4,0,0,1-44.85,67.8q-29.37,29-72.44,45.5T2376,1093a313.05,313.05,0,0,1-61.18-6.2,360.71,360.71,0,0,1-60.3-17.44,349.85,349.85,0,0,1-54.79-26.72,232.47,232.47,0,0,1-44.61-34.46l44.17-69.81a35.74,35.74,0,0,1,13.7-12.8,38.76,38.76,0,0,1,19-4.86q13.24,0,26.72,8.39t30.49,18.55a247.68,247.68,0,0,0,39.09,18.56q22.09,8.38,52.13,8.39,40.65,0,63.18-17.9t22.53-56.76q0-22.54-12.37-36.68t-32.48-23.41a299.44,299.44,0,0,0-45.72-16.35Q2350,816.43,2323,807.81a385.6,385.6,0,0,1-52.57-21.2,165.87,165.87,0,0,1-45.73-33.14q-20.1-20.55-32.46-51.24t-12.38-75.77a179.91,179.91,0,0,1,14.58-70.68,182.46,182.46,0,0,1,42.86-61.41q28.26-26.94,69.36-43.07t94.1-16.13a353.08,353.08,0,0,1,57.64,4.64,304.57,304.57,0,0,1,53.24,13.7,292,292,0,0,1,47,21.64,216.88,216.88,0,0,1,39.09,28.49Z"/><path class="cls-2" d="M3035.15,573q-6.63,10.59-13.92,15.9t-18.77,5.3q-10.17,0-21.87-6.4t-26.51-14.36a221.29,221.29,0,0,0-33.79-14.36q-19-6.4-43.3-6.41-42,0-62.51,17.9T2793.93,619q0,19.44,12.38,32.25t32.47,22.09a347.13,347.13,0,0,0,45.94,17q25.84,7.73,52.8,17.23a472.23,472.23,0,0,1,52.78,22.31,176.24,176.24,0,0,1,45.95,32.68q20.1,19.89,32.47,48.38t12.37,68.71q0,44.63-15.46,83.5a195.51,195.51,0,0,1-44.84,67.8q-29.39,29-72.45,45.5T2850.49,1093a313.15,313.15,0,0,1-61.19-6.2,360.71,360.71,0,0,1-60.3-17.44,349.31,349.31,0,0,1-54.78-26.72,232.23,232.23,0,0,1-44.62-34.46l44.18-69.81a35.64,35.64,0,0,1,13.69-12.8,38.76,38.76,0,0,1,19-4.86q13.25,0,26.73,8.39t30.48,18.55a247.68,247.68,0,0,0,39.09,18.56q22.09,8.38,52.13,8.39,40.65,0,63.18-17.9t22.53-56.76q0-22.54-12.37-36.68t-32.47-23.41a299.83,299.83,0,0,0-45.72-16.35q-25.64-7.07-52.58-15.68a385,385,0,0,1-52.56-21.2,165.72,165.72,0,0,1-45.73-33.14q-20.11-20.55-32.47-51.24t-12.37-75.77a179.9,179.9,0,0,1,14.57-70.68,182.61,182.61,0,0,1,42.86-61.41q28.26-26.94,69.36-43.07t94.1-16.13a353.29,353.29,0,0,1,57.65,4.64,304.23,304.23,0,0,1,53.23,13.7,292,292,0,0,1,47,21.64,217,217,0,0,1,39.1,28.49Z"/><path class="cls-2" d="M3314.35,1085.92H3164.16V442.24h150.19Z"/><path class="cls-2" d="M3587.81,755,3388.57,442.24h149.32q14.58,0,21.42,3.76t12.16,12.58L3699.58,675.5a90.71,90.71,0,0,1,5.08-11q2.85-5.31,6.4-11.05l112.21-192.62q11-18.54,30.05-18.55h143.14L3794.57,748.39l206.29,337.53H3851.55q-14.6,0-23.64-7.08a53.62,53.62,0,0,1-14.35-16.78l-129-225.32a88.81,88.81,0,0,1-8,16.79l-120.16,208.53a59.87,59.87,0,0,1-14.13,16.56c-5.9,4.86-13.25,7.3-22.1,7.3H3380.62Z"/><circle class="cls-1" cx="3697.86" cy="228.75" r="137.2"/></svg>